<svg width="500" height="500" viewBox="0 0 500 500" fill="none" xmlns="http://www.w3.org/2000/svg">
<g clip-path="url(#clip0_1166_126)">
<rect width="500" height="500" fill="#FF6B5C"/>
<path d="M103 166.224C103 131.635 127.239 95.2009 173.766 94.0264C196.566 93.4509 215.449 102.326 228.284 117.433C240.745 132.099 246.459 151.332 246.459 170.537C246.459 186.255 243.331 199.472 235.829 212.843C228.826 225.324 218.308 237.33 205.252 251.198C197.546 259.383 195.98 267.083 196.591 273.398C197.268 280.399 200.79 286.866 204.823 290.888C211.98 298.024 222.769 301.988 232.906 300.741C242.065 299.615 252.724 293.983 260.294 277.555C279.055 236.837 311.98 219.107 344.155 226.627C374.415 233.699 397 262.133 397 296.931V406.499C397 406.499 397 406.5 377.5 406.5C358 406.5 358 406.499 358 406.499V296.931C358 279.094 346.791 267.294 335.28 264.604C325.685 262.361 308.862 265.342 295.715 293.875C282.965 321.547 261.317 336.542 237.665 339.45C214.992 342.238 192.465 333.641 177.284 318.503C167.432 308.678 159.4 293.985 157.771 277.153C156.077 259.635 161.453 240.827 176.855 224.466C189.977 210.528 197.411 201.612 201.816 193.76C205.723 186.798 207.459 180.27 207.459 170.537C207.459 158.683 203.909 148.976 198.562 142.684C193.59 136.831 186.124 132.727 174.75 133.014C152.927 133.565 142 149.047 142 166.224V406.497C142 406.499 142 406.5 122.5 406.5C103 406.5 103 406.499 103 406.497V166.224Z" fill="white"/>
</g>
<defs>
<clipPath id="clip0_1166_126">
<rect width="500" height="500" fill="white"/>
</clipPath>
</defs>
</svg>
