<svg width="558" height="80" viewBox="0 0 558 80" fill="none" xmlns="http://www.w3.org/2000/svg">
<path fill-rule="evenodd" clip-rule="evenodd" d="M25.498 77.0154C28.6361 79.0051 33.1255 79.9999 38.9662 79.9999C44.1964 79.9999 49.0345 78.7456 53.4802 76.2368C57.9262 73.6415 61.5002 69.8783 64.2027 64.9473C66.905 60.0162 68.256 54.047 68.256 47.0397V46.2611C68.256 39.2538 66.905 33.2847 64.2027 28.3536C61.5002 23.4225 57.9262 19.7026 53.4802 17.1939C49.0345 14.5986 44.1964 13.3009 38.9662 13.3009C35.0433 13.3009 31.7308 13.7767 29.0285 14.7283C26.4132 15.5934 24.2776 16.718 22.6214 18.1022C21.052 19.4863 19.7882 20.957 18.8293 22.5142H16.4757V0H0V79.9999H16.2142V70.3974H18.5678C20.0497 72.8197 22.3599 75.0257 25.498 77.0154ZM46.6809 60.9245C43.2813 64.1254 39.0534 65.7258 33.9972 65.7258C28.9414 65.7258 24.7135 64.1254 21.3136 60.9245C17.9139 57.6372 16.2142 52.8791 16.2142 46.6504C16.2142 40.4217 17.9139 35.7069 21.3136 32.506C24.7135 29.2187 28.9414 27.575 33.9972 27.575C39.1406 27.575 43.3685 29.2187 46.6809 32.506C50.0806 35.7069 51.7805 40.4217 51.7805 46.6504C51.7805 52.8791 50.0806 57.6372 46.6809 60.9245Z" fill="black"/>
<path fill-rule="evenodd" clip-rule="evenodd" d="M103.521 80C98.901 80 94.7602 79.2214 91.0991 77.6642C87.4377 76.0205 84.5173 73.6847 82.3381 70.6569C80.246 67.5426 79.1999 63.7794 79.1999 59.3674C79.1999 54.9554 80.246 51.2787 82.3381 48.3374C84.5173 45.3096 87.4814 43.0603 91.2297 41.5896C95.0652 40.0325 99.424 39.2538 104.306 39.2538H122.089V35.6204C122.089 32.5926 121.13 30.1271 119.212 28.2238C117.294 26.2341 114.243 25.2393 110.059 25.2393C105.962 25.2393 102.911 26.1909 100.906 28.0941C98.901 29.9108 97.5934 32.2898 96.9832 35.2312L81.815 30.1703C82.8611 26.883 84.5173 23.8983 86.784 21.2166C89.1376 18.4482 92.2323 16.2423 96.0678 14.5986C99.9905 12.8683 104.741 12.0033 110.321 12.0033C118.864 12.0033 125.619 14.1228 130.588 18.3617C135.557 22.6007 138.041 28.7429 138.041 36.7883V60.7948C138.041 63.3901 139.262 64.6877 141.703 64.6877H146.933V78.1833H135.949C132.724 78.1833 130.065 77.4047 127.973 75.8475C125.881 74.2904 124.835 72.2141 124.835 69.6188V69.4891H122.35C122.002 70.5271 121.217 71.9113 119.997 73.6415C118.776 75.2852 116.859 76.7558 114.243 78.0535C111.628 79.3512 108.054 80 103.521 80ZM106.398 66.764C111.018 66.764 114.766 65.5096 117.643 63.0008C120.607 60.4055 122.089 56.9884 122.089 52.7494V51.4517H105.482C102.432 51.4517 100.034 52.1006 98.2908 53.3982C96.5474 54.6958 95.6757 56.5126 95.6757 58.8483C95.6757 61.1841 96.5908 63.0873 98.4214 64.558C100.252 66.0286 102.911 66.764 106.398 66.764Z" fill="black"/>
<path d="M185.405 80C176.949 80 170.019 78.1833 164.614 74.5499C159.21 70.9164 155.941 65.7258 154.807 58.9781L169.975 55.0851C170.585 58.113 171.588 60.492 172.983 62.2222C174.465 63.9524 176.252 65.2068 178.344 65.9854C180.523 66.6775 182.877 67.0235 185.405 67.0235C189.24 67.0235 192.074 66.3747 193.904 65.077C195.735 63.6929 196.65 62.0059 196.65 60.0162C196.65 58.0265 195.778 56.5126 194.035 55.4744C192.292 54.3498 189.502 53.4415 185.666 52.7494L182.005 52.1006C177.472 51.2355 173.331 50.0676 169.583 48.5969C165.835 47.0397 162.827 44.9202 160.561 42.2384C158.294 39.5566 157.161 36.0962 157.161 31.8573C157.161 25.4555 159.514 20.5677 164.222 17.1939C168.929 13.7335 175.119 12.0033 182.79 12.0033C190.025 12.0033 196.04 13.6037 200.834 16.8046C205.629 20.0054 208.767 24.2012 210.249 29.3918L194.95 34.0632C194.253 30.7759 192.815 28.4401 190.635 27.056C188.543 25.6718 185.928 24.9797 182.79 24.9797C179.651 24.9797 177.254 25.542 175.598 26.6667C173.942 27.7048 173.114 29.1755 173.114 31.0787C173.114 33.1549 173.985 34.7121 175.729 35.7502C177.472 36.7018 179.826 37.4372 182.79 37.9562L186.451 38.605C191.332 39.4701 195.735 40.638 199.658 42.1087C203.667 43.4928 206.806 45.5258 209.072 48.2076C211.426 50.8029 212.603 54.3498 212.603 58.8483C212.603 65.5961 210.118 70.8299 205.149 74.5499C200.268 78.1833 193.686 80 185.405 80Z" fill="black"/>
<path fill-rule="evenodd" clip-rule="evenodd" d="M256.592 80C250.141 80 244.431 78.6591 239.462 75.9773C234.581 73.2089 230.745 69.3593 227.956 64.4282C225.253 59.4106 223.902 53.528 223.902 46.7802V45.2231C223.902 38.4753 225.253 32.6359 227.956 27.7048C230.658 22.6872 234.45 18.8376 239.331 16.1558C244.213 13.3874 249.879 12.0033 256.33 12.0033C262.694 12.0033 268.229 13.4306 272.937 16.2855C277.644 19.0538 281.305 22.9467 283.92 27.9643C286.535 32.8954 287.843 38.6483 287.843 45.2231V50.8029H240.639C240.813 55.2149 242.47 58.8051 245.608 61.5734C248.746 64.3417 252.582 65.7258 257.115 65.7258C261.735 65.7258 265.135 64.731 267.314 62.7413C269.493 60.7515 271.149 58.5456 272.283 56.1233L285.751 63.1305C284.53 65.3798 282.744 67.8453 280.39 70.5271C278.123 73.1224 275.072 75.3717 271.237 77.2749C267.401 79.0916 262.52 80 256.592 80ZM240.77 38.605H271.106C270.757 34.8851 269.232 31.9006 266.529 29.6513C263.914 27.402 260.471 26.2774 256.199 26.2774C251.754 26.2774 248.223 27.402 245.608 29.6513C242.993 31.9006 241.38 34.8851 240.77 38.605Z" fill="black"/>
<path fill-rule="evenodd" clip-rule="evenodd" d="M380.564 75.9773C385.533 78.6591 391.243 80 397.694 80C403.621 80 408.503 79.0916 412.339 77.2749C416.174 75.3717 419.225 73.1224 421.492 70.5271C423.845 67.8453 425.632 65.3798 426.853 63.1305L413.385 56.1233C412.251 58.5456 410.595 60.7515 408.416 62.7413C406.237 64.731 402.837 65.7258 398.217 65.7258C393.684 65.7258 389.848 64.3417 386.71 61.5734C383.572 58.8051 381.915 55.2149 381.741 50.8029H428.945V45.2231C428.945 38.6483 427.637 32.8954 425.022 27.9643C422.407 22.9467 418.746 19.0538 414.038 16.2855C409.331 13.4306 403.796 12.0033 397.432 12.0033C390.981 12.0033 385.315 13.3874 380.433 16.1558C375.552 18.8376 371.76 22.6872 369.057 27.7048C366.355 32.6359 365.004 38.4753 365.004 45.2231V46.7802C365.004 53.528 366.355 59.4106 369.057 64.4282C371.847 69.3593 375.682 73.2089 380.564 75.9773ZM412.208 38.605H381.872C382.482 34.8851 384.095 31.9006 386.71 29.6513C389.325 27.402 392.856 26.2774 397.301 26.2774C401.573 26.2774 405.016 27.402 407.631 29.6513C410.334 31.9006 411.859 34.8851 412.208 38.605Z" fill="black"/>
<path d="M443.609 78.1832V13.8199H459.824V21.0868H462.177C463.136 18.4915 464.705 16.5882 466.884 15.3771C469.151 14.166 471.766 13.5604 474.73 13.5604H482.576V28.0941H474.469C470.284 28.0941 466.841 29.2187 464.139 31.4679C461.436 33.6307 460.085 37.0046 460.085 41.5896V78.1832H443.609Z" fill="black"/>
<path d="M299.132 78.1832V58.7185L334.698 29.3917V27.3155H300.44V13.8199H352.743V33.2846L317.177 62.6114V64.6877H353.789V78.1832H299.132Z" fill="black"/>
<path fill-rule="evenodd" clip-rule="evenodd" d="M494.451 26.7702C491.487 31.6633 490.005 37.5436 490.005 44.411V47.0397C490.005 53.9605 491.487 59.8864 494.451 64.8175C497.415 69.7486 501.469 73.5117 506.612 76.107C511.755 78.7023 517.552 80 524.003 80C530.454 80 536.251 78.7023 541.394 76.107C546.537 73.5117 550.591 69.7486 553.554 64.8175C556.518 59.8864 558 53.9605 558 47.0397V44.9635C558 44.7958 557.999 44.6287 557.997 44.4622L557.995 44.2549C557.972 37.4544 556.491 31.6262 553.55 26.7702C550.586 21.8772 546.533 18.143 541.39 15.5677C536.247 12.9924 530.451 11.7048 524 11.7048C517.55 11.7048 511.753 12.9924 506.611 15.5677C501.468 18.143 497.415 21.8772 494.451 26.7702ZM508.461 61.2131L530.274 24.1256C528.43 23.6482 526.444 23.4096 524.317 23.4096C518.438 23.4096 513.573 25.2965 509.722 29.0704C505.87 32.745 503.944 38.0583 503.944 45.0102V46.4999C503.944 52.6465 505.45 57.5509 508.461 61.2131ZM544.689 45.0102C544.689 38.4329 542.965 33.3223 539.517 29.6787L517.484 67.1399C519.585 67.7803 521.862 68.1005 524.317 68.1005C530.195 68.1005 535.06 66.2632 538.912 62.5886C542.763 58.8147 544.689 53.4518 544.689 46.4999V45.0102Z" fill="black"/>
</svg>
