<svg width="250" height="251" viewBox="0 0 250 251" fill="none" xmlns="http://www.w3.org/2000/svg">
<path fill-rule="evenodd" clip-rule="evenodd" d="M125 251C101.282 251 79.9679 246.21 61.0576 236.63C42.1474 227.05 27.2436 213.158 16.3461 194.956C5.44869 176.754 0 154.879 0 129.332V121.668C0 96.1209 5.44869 74.2462 16.3461 56.0439C27.2436 37.8416 42.1474 23.9504 61.0576 14.3702C79.9679 4.79007 101.282 0 125 0C148.718 0 170.032 4.79007 188.942 14.3702C207.852 23.9504 222.756 37.8416 233.654 56.0439C244.551 74.2462 250 96.1209 250 121.668V129.332C250 154.879 244.551 176.754 233.654 194.956C222.756 213.158 207.852 227.05 188.942 236.63C170.032 246.21 148.718 251 125 251ZM184.046 195.548C168.464 210.69 148.782 218.261 125 218.261C114.736 218.261 105.236 216.851 96.4995 214.03L186.243 59.6649C200.359 74.6966 207.418 95.8459 207.418 123.113V129.251C207.418 157.898 199.627 179.997 184.046 195.548ZM125 34.1033C135.034 34.1033 144.291 35.4407 152.773 38.1157L63.041 192.462C49.4019 177.123 42.5824 156.053 42.5824 129.251V123.113C42.5824 94.466 50.3731 72.5718 65.9545 57.4299C81.5359 41.8788 101.218 34.1033 125 34.1033Z" fill="white"/>
</svg>
