<svg width="500" height="500" viewBox="0 0 500 500" fill="none" xmlns="http://www.w3.org/2000/svg">
<g clip-path="url(#clip0_1122_128)">
<path d="M250 0C202.564 0 159.936 9.58014 122.115 28.7405C84.2947 47.9008 54.4871 75.6833 32.6922 112.088C10.8974 148.492 0 192.242 0 243.336V258.664C0 309.758 10.8974 353.508 32.6922 389.912C54.4871 426.317 84.2947 454.099 122.115 473.26C159.936 492.42 202.564 502 250 502C297.436 502 340.064 492.42 377.884 473.26C415.705 454.099 445.513 426.317 467.308 389.912C489.103 353.508 500 309.758 500 258.664V243.336C500 192.242 489.103 148.492 467.308 112.088C445.513 75.6833 415.705 47.9008 377.884 28.7405C340.064 9.58014 297.436 0 250 0Z" fill="white"/>
<path d="M122 370V130H205.953L247.416 339.143H253.584L295.047 130H379V370H335.139V163.257H328.971L287.851 370H213.149L172.029 163.257H165.861V370H122Z" fill="#101010"/>
</g>
<defs>
<clipPath id="clip0_1122_128">
<rect width="500" height="500" fill="white"/>
</clipPath>
</defs>
</svg>
