<svg width="500" height="500" viewBox="0 0 500 500" fill="none" xmlns="http://www.w3.org/2000/svg">
<rect width="500" height="500" fill="#101010"/>
<path d="M91.448 295V205.4H122.808L138.296 283.48H140.6L156.088 205.4H187.448V295H171.064V217.816H168.76L153.4 295H125.496L110.136 217.816H107.832V295H91.448ZM204.835 295V205.4H220.963V254.936H223.267L244.259 231.512H265.251L235.939 262.232L266.275 295H245.539L223.267 269.784H220.963V295H204.835ZM315.229 296.792C309.512 296.792 305.117 295.811 302.045 293.848C298.973 291.885 296.712 289.709 295.261 287.32H292.957V295H277.085V205.4H293.213V238.808H295.517C296.456 237.272 297.693 235.821 299.229 234.456C300.85 233.091 302.941 231.981 305.501 231.128C308.146 230.189 311.389 229.72 315.229 229.72C320.349 229.72 325.085 231 329.437 233.56C333.789 236.035 337.288 239.704 339.933 244.568C342.578 249.432 343.901 255.32 343.901 262.232V264.28C343.901 271.192 342.578 277.08 339.933 281.944C337.288 286.808 333.789 290.52 329.437 293.08C325.085 295.555 320.349 296.792 315.229 296.792ZM310.365 282.712C315.314 282.712 319.453 281.133 322.781 277.976C326.109 274.733 327.773 270.04 327.773 263.896V262.616C327.773 256.472 326.109 251.821 322.781 248.664C319.538 245.421 315.4 243.8 310.365 243.8C305.416 243.8 301.277 245.421 297.949 248.664C294.621 251.821 292.957 256.472 292.957 262.616V263.896C292.957 270.04 294.621 274.733 297.949 277.976C301.277 281.133 305.416 282.712 310.365 282.712ZM385.078 296.792C376.801 296.792 370.017 295 364.726 291.416C359.435 287.832 356.235 282.712 355.126 276.056L369.974 272.216C370.571 275.203 371.553 277.549 372.918 279.256C374.369 280.963 376.118 282.2 378.166 282.968C380.299 283.651 382.603 283.992 385.078 283.992C388.833 283.992 391.606 283.352 393.398 282.072C395.19 280.707 396.086 279.043 396.086 277.08C396.086 275.117 395.233 273.624 393.526 272.6C391.819 271.491 389.089 270.595 385.334 269.912L381.75 269.272C377.313 268.419 373.259 267.267 369.59 265.816C365.921 264.28 362.977 262.189 360.758 259.544C358.539 256.899 357.43 253.485 357.43 249.304C357.43 242.989 359.734 238.168 364.342 234.84C368.95 231.427 375.009 229.72 382.518 229.72C389.601 229.72 395.489 231.299 400.182 234.456C404.875 237.613 407.947 241.752 409.398 246.872L394.422 251.48C393.739 248.237 392.331 245.933 390.198 244.568C388.15 243.203 385.59 242.52 382.518 242.52C379.446 242.52 377.099 243.075 375.478 244.184C373.857 245.208 373.046 246.659 373.046 248.536C373.046 250.584 373.899 252.12 375.606 253.144C377.313 254.083 379.617 254.808 382.518 255.32L386.102 255.96C390.881 256.813 395.19 257.965 399.03 259.416C402.955 260.781 406.027 262.787 408.246 265.432C410.55 267.992 411.702 271.491 411.702 275.928C411.702 282.584 409.27 287.747 404.406 291.416C399.627 295 393.185 296.792 385.078 296.792Z" fill="white"/>
</svg>
