<svg width="500" height="500" viewBox="0 0 500 500" fill="none" xmlns="http://www.w3.org/2000/svg">
<g clip-path="url(#clip0_613_4284)">
<path d="M0 250C0 74.4898 74.4898 0 250 0C425.51 0 500 74.4898 500 250C500 425.51 425.51 500 250 500C74.4898 500 0 425.51 0 250Z" fill="black"/>
<path d="M241.388 119.808C231.465 111.469 220.103 108.578 207.302 111.135C204.793 111.959 202.243 112.793 199.653 113.636C189.054 118.323 179.48 124.52 170.932 132.229C156.562 145.602 143.596 160.265 132.035 176.218L132.07 176.233C128.007 181.955 119.134 194.703 113.05 204.221C113.072 204.229 113.094 204.236 113.116 204.244C104.356 218.576 96.3467 233.315 89.087 248.461L116.983 261.588C127.05 240.067 138.271 219.131 150.644 198.781C150.662 198.798 150.681 198.814 150.699 198.831C158.157 187.824 166.363 177.392 175.317 167.534C183.486 158.408 192.653 150.399 202.82 143.505C206.451 141.148 210.384 139.567 214.62 138.762C218.891 137.878 221.957 139.382 223.818 143.273C224.914 149.551 224.856 155.819 223.645 162.08C222.231 169.714 220.459 177.258 218.328 184.713C214.444 197.424 210.728 210.184 207.179 222.992C205.091 230.693 203.546 238.505 202.544 246.426C201.542 254.47 201.976 262.443 203.846 270.346C206.134 278.411 210.657 284.883 217.417 289.762C227.444 296.2 238.214 297.79 249.727 294.53C258.622 291.269 266.157 286.09 272.332 278.995C280.537 268.952 287.574 258.205 293.443 246.753C297.227 239.221 301.01 231.688 304.792 224.156C308.575 216.623 312.358 209.091 316.141 201.558C319.956 194.641 324.077 187.901 328.5 181.339C331.734 176.709 335.639 172.783 340.221 169.56C341.695 168.627 343.289 168.002 345.002 167.685C353.62 167.882 357.612 172.312 356.981 180.974C356.879 183.241 356.751 185.506 356.592 187.771C354.426 200.341 351.248 212.647 347.05 224.689C342.735 237.056 338.587 249.475 334.607 261.944C331.85 270.887 329.567 279.958 327.762 289.157C325.778 299.032 325.553 308.941 327.091 318.883C328.876 328.838 333.475 337.209 340.881 343.998C353.494 353.981 367.613 356.992 383.242 353.032C392.631 349.81 400.649 344.577 407.299 337.328C420.622 321.979 430.574 304.681 437.159 285.432C428.52 282.186 419.786 279.138 410.958 276.286C410.394 276.802 409.979 277.437 409.708 278.193C406.297 287.451 402.025 296.263 396.893 304.629C392.798 311.562 387.662 317.588 381.492 322.706C379.189 324.323 376.678 325.495 373.96 326.221C365.63 327.574 359.542 324.513 355.694 317.036C353.74 310.18 353.526 303.257 355.051 296.268C356.911 287.403 359.13 278.633 361.706 269.959C367.662 252.313 373.454 234.616 379.078 216.868C380.599 211.574 381.938 206.233 383.102 200.844C384.697 193.016 385.348 185.112 385.059 177.133C384.447 162.335 377.731 151.322 364.91 144.095C348.702 136.68 333.625 138.525 319.68 149.63C313.63 154.926 308.292 160.878 303.665 167.485C297.73 176.664 292.258 186.105 287.246 195.807L268.642 233.188C263.51 243.312 257.306 252.788 250.029 261.618C247.633 264.325 244.728 266.325 241.315 267.618C238.036 268.535 235.162 267.841 232.693 265.535C230.889 262.779 230.048 259.745 230.168 256.434C230.639 247.597 232.083 238.917 234.502 230.393C238.197 217.309 241.977 204.248 245.84 191.211C248.893 180.864 251.103 170.334 252.471 159.62C253.344 152.469 253.108 145.353 251.761 138.274C250.071 131.096 246.613 124.941 241.388 119.808Z" fill="white"/>
<path d="M101.931 296.336L74.5309 283.737C72.3224 290.281 70.3509 296.912 68.6165 303.629C67.7678 306.73 67.0546 309.843 66.477 312.967L92.6126 323.623C94.7532 316.092 97.2112 308.638 99.9865 301.262C100.629 299.617 101.277 297.975 101.931 296.336Z" fill="white"/>
</g>
<defs>
<clipPath id="clip0_613_4284">
<rect width="500" height="500" fill="white"/>
</clipPath>
</defs>
</svg>
