<svg width="500" height="500" viewBox="0 0 500 500" fill="none" xmlns="http://www.w3.org/2000/svg">
<rect width="500" height="500" fill="#224F55"/>
<path d="M180.828 121.977C201.914 101.063 231.224 89.0398 266.136 93.3799C302.34 97.881 327.939 119.39 342.489 146.527C356.617 172.878 360.572 204.539 356.292 233.582C352.018 262.586 339.015 292.226 315.322 312.686C304.649 321.902 292.325 328.787 278.651 332.905C279.848 346.597 281.044 360.289 282.241 373.981H306.51C315.633 373.982 323.028 381.378 323.028 390.501C323.028 399.624 315.633 407.02 306.51 407.021H267.117C267.103 407.021 267.09 407.02 267.076 407.02C262.785 407.025 258.659 405.494 255.613 402.704C252.378 399.747 250.62 395.619 250.615 391.233C250.615 391.231 250.614 391.228 250.614 391.226C250.604 390.985 250.598 390.744 250.598 390.501C250.598 390.276 250.603 390.052 250.612 389.829C250.611 388.812 250.61 387.795 250.608 386.777C250.582 370.284 250.555 353.79 250.529 337.297C247.31 337.371 244.039 337.311 240.721 337.109C239.698 354.125 238.675 371.14 237.653 388.155C237.575 389.461 237.496 390.768 237.418 392.073C237.158 396.452 235.16 400.46 231.741 403.203C229.94 404.652 227.82 405.685 225.549 406.265C223.986 406.755 222.322 407.021 220.597 407.021H181.206C172.083 407.02 164.687 399.624 164.687 390.501C164.687 381.378 172.083 373.982 181.206 373.981H206.874C209.067 360.144 211.26 346.306 213.454 332.469C183.973 323.871 164.165 302.663 153.25 278.195C142.007 252.992 139.646 223.618 144.149 196.592C148.65 169.58 160.48 142.158 180.828 121.977ZM258.925 151.385C242.794 149.379 231.055 154.487 221.99 163.478C212.187 173.201 204.762 188.458 201.806 206.198C198.853 223.925 200.833 241.382 206.632 254.381C212.173 266.803 220.546 274.216 231.733 276.861C253.455 281.998 267.53 276.724 277.118 268.445C287.743 259.271 295.706 243.773 298.464 225.061C301.215 206.388 298.267 187.751 290.973 174.148C284.102 161.333 273.761 153.229 258.925 151.385Z" fill="white"/>
</svg>
