<svg width="500" height="500" viewBox="0 0 500 500" fill="none" xmlns="http://www.w3.org/2000/svg">
<g clip-path="url(#clip0_586_77)">
<rect width="500" height="500" fill="white"/>
<path d="M0 250C0 74.4898 74.4898 0 250 0C425.51 0 500 74.4898 500 250C500 425.51 425.51 500 250 500C74.4898 500 0 425.51 0 250Z" fill="white"/>
<path d="M89.642 323V177.545H147.028C158.013 177.545 167.388 179.51 175.153 183.44C182.966 187.323 188.908 192.839 192.98 199.989C197.099 207.091 199.159 215.448 199.159 225.06C199.159 234.719 197.076 243.028 192.909 249.989C188.742 256.902 182.705 262.205 174.798 265.898C166.938 269.591 157.421 271.438 146.247 271.438H107.824V246.722H141.276C147.147 246.722 152.024 245.917 155.906 244.307C159.789 242.697 162.677 240.282 164.571 237.062C166.512 233.843 167.483 229.842 167.483 225.06C167.483 220.23 166.512 216.158 164.571 212.844C162.677 209.529 159.765 207.02 155.835 205.315C151.953 203.563 147.052 202.688 141.134 202.688H120.395V323H89.642ZM168.193 256.807L204.344 323H170.395L135.026 256.807H168.193ZM268.282 325.131C257.06 325.131 247.401 322.858 239.305 318.312C231.255 313.72 225.053 307.233 220.697 298.852C216.341 290.424 214.163 280.457 214.163 268.952C214.163 257.73 216.341 247.882 220.697 239.406C225.053 230.931 231.184 224.326 239.092 219.591C247.046 214.856 256.374 212.489 267.075 212.489C274.272 212.489 280.971 213.649 287.174 215.969C293.424 218.241 298.869 221.674 303.509 226.267C308.197 230.86 311.843 236.636 314.447 243.597C317.051 250.509 318.353 258.606 318.353 267.886V276.196H226.237V257.446H289.873C289.873 253.09 288.926 249.231 287.032 245.869C285.138 242.508 282.51 239.88 279.148 237.986C275.834 236.045 271.975 235.074 267.572 235.074C262.979 235.074 258.907 236.139 255.356 238.27C251.852 240.353 249.106 243.17 247.117 246.722C245.129 250.225 244.111 254.132 244.063 258.44V276.267C244.063 281.665 245.058 286.329 247.046 290.259C249.082 294.188 251.947 297.219 255.64 299.349C259.333 301.48 263.713 302.545 268.779 302.545C272.141 302.545 275.219 302.072 278.012 301.125C280.806 300.178 283.197 298.758 285.185 296.864C287.174 294.97 288.689 292.65 289.731 289.903L317.714 291.75C316.293 298.473 313.381 304.345 308.978 309.364C304.622 314.335 298.987 318.218 292.075 321.011C285.209 323.758 277.278 325.131 268.282 325.131ZM421.407 323V345.94H325.881V323H421.407Z" fill="black"/>
</g>
<defs>
<clipPath id="clip0_586_77">
<rect width="500" height="500" fill="white"/>
</clipPath>
</defs>
</svg>
